<mxfile host="Electron" modified="2024-11-29T01:29:52.903Z" agent="Mozilla/5.0 (Windows NT 10.0; Win64; x64) AppleWebKit/537.36 (KHTML, like Gecko) draw.io/22.0.3 Chrome/114.0.5735.289 Electron/25.8.4 Safari/537.36" etag="q7DmJjpGVKSXJNes6dli" version="22.0.3" type="device">
  <diagram name="第 1 页" id="khoDTANYipf8F7zQTks_">
    <mxGraphModel dx="1098" dy="820" grid="1" gridSize="10" guides="1" tooltips="1" connect="1" arrows="1" fold="1" page="1" pageScale="1" pageWidth="827" pageHeight="1169" math="0" shadow="0">
      <root>
        <mxCell id="0" />
        <mxCell id="1" parent="0" />
        <mxCell id="UTRQuupAB5pySvWa-HIV-7" value="" style="rounded=1;whiteSpace=wrap;html=1;labelBackgroundColor=none;fillColor=#f5f5f5;fontColor=#333333;strokeColor=#666666;" vertex="1" parent="1">
          <mxGeometry x="70" y="390" width="670" height="270" as="geometry" />
        </mxCell>
        <mxCell id="UTRQuupAB5pySvWa-HIV-4" value="" style="edgeStyle=orthogonalEdgeStyle;rounded=1;orthogonalLoop=1;jettySize=auto;html=1;labelBackgroundColor=none;fontColor=default;" edge="1" parent="1" source="UTRQuupAB5pySvWa-HIV-1" target="UTRQuupAB5pySvWa-HIV-2">
          <mxGeometry relative="1" as="geometry" />
        </mxCell>
        <mxCell id="UTRQuupAB5pySvWa-HIV-1" value="B协议层" style="rounded=1;whiteSpace=wrap;html=1;labelBackgroundColor=none;fillColor=#d5e8d4;strokeColor=#82b366;" vertex="1" parent="1">
          <mxGeometry x="310" y="550" width="150" height="60" as="geometry" />
        </mxCell>
        <mxCell id="UTRQuupAB5pySvWa-HIV-6" value="" style="edgeStyle=orthogonalEdgeStyle;rounded=1;orthogonalLoop=1;jettySize=auto;html=1;dashed=1;labelBackgroundColor=none;fontColor=default;" edge="1" parent="1" source="UTRQuupAB5pySvWa-HIV-2" target="UTRQuupAB5pySvWa-HIV-5">
          <mxGeometry relative="1" as="geometry" />
        </mxCell>
        <mxCell id="UTRQuupAB5pySvWa-HIV-2" value="B协议适配层" style="rounded=1;whiteSpace=wrap;html=1;labelBackgroundColor=none;fillColor=#dae8fc;strokeColor=#6c8ebf;" vertex="1" parent="1">
          <mxGeometry x="310" y="420" width="150" height="60" as="geometry" />
        </mxCell>
        <mxCell id="UTRQuupAB5pySvWa-HIV-5" value="mct协议列表" style="rounded=1;whiteSpace=wrap;html=1;labelBackgroundColor=none;fillColor=#f8cecc;strokeColor=#b85450;" vertex="1" parent="1">
          <mxGeometry x="310" y="260" width="150" height="60" as="geometry" />
        </mxCell>
        <mxCell id="UTRQuupAB5pySvWa-HIV-17" value="" style="edgeStyle=orthogonalEdgeStyle;rounded=1;orthogonalLoop=1;jettySize=auto;html=1;labelBackgroundColor=none;fontColor=default;" edge="1" parent="1" source="UTRQuupAB5pySvWa-HIV-10" target="UTRQuupAB5pySvWa-HIV-11">
          <mxGeometry relative="1" as="geometry" />
        </mxCell>
        <mxCell id="UTRQuupAB5pySvWa-HIV-10" value="A协议层" style="rounded=1;whiteSpace=wrap;html=1;labelBackgroundColor=none;fillColor=#d5e8d4;strokeColor=#82b366;" vertex="1" parent="1">
          <mxGeometry x="110" y="550" width="150" height="60" as="geometry" />
        </mxCell>
        <mxCell id="UTRQuupAB5pySvWa-HIV-22" style="edgeStyle=orthogonalEdgeStyle;rounded=1;orthogonalLoop=1;jettySize=auto;html=1;entryX=0.25;entryY=1;entryDx=0;entryDy=0;dashed=1;labelBackgroundColor=none;fontColor=default;" edge="1" parent="1" source="UTRQuupAB5pySvWa-HIV-11" target="UTRQuupAB5pySvWa-HIV-5">
          <mxGeometry relative="1" as="geometry">
            <Array as="points">
              <mxPoint x="185" y="360" />
              <mxPoint x="348" y="360" />
            </Array>
          </mxGeometry>
        </mxCell>
        <mxCell id="UTRQuupAB5pySvWa-HIV-11" value="A协议适配层" style="rounded=1;whiteSpace=wrap;html=1;labelBackgroundColor=none;fillColor=#dae8fc;strokeColor=#6c8ebf;" vertex="1" parent="1">
          <mxGeometry x="110" y="420" width="150" height="60" as="geometry" />
        </mxCell>
        <mxCell id="UTRQuupAB5pySvWa-HIV-21" style="edgeStyle=orthogonalEdgeStyle;rounded=1;orthogonalLoop=1;jettySize=auto;html=1;entryX=0.75;entryY=1;entryDx=0;entryDy=0;dashed=1;labelBackgroundColor=none;fontColor=default;" edge="1" parent="1" source="UTRQuupAB5pySvWa-HIV-15" target="UTRQuupAB5pySvWa-HIV-5">
          <mxGeometry relative="1" as="geometry">
            <Array as="points">
              <mxPoint x="635" y="360" />
              <mxPoint x="423" y="360" />
            </Array>
          </mxGeometry>
        </mxCell>
        <mxCell id="UTRQuupAB5pySvWa-HIV-15" value="n协议适配层" style="rounded=1;whiteSpace=wrap;html=1;labelBackgroundColor=none;fillColor=#dae8fc;strokeColor=#6c8ebf;" vertex="1" parent="1">
          <mxGeometry x="560" y="420" width="150" height="60" as="geometry" />
        </mxCell>
        <mxCell id="UTRQuupAB5pySvWa-HIV-20" value="" style="edgeStyle=orthogonalEdgeStyle;rounded=1;orthogonalLoop=1;jettySize=auto;html=1;labelBackgroundColor=none;fontColor=default;" edge="1" parent="1" source="UTRQuupAB5pySvWa-HIV-18" target="UTRQuupAB5pySvWa-HIV-15">
          <mxGeometry relative="1" as="geometry" />
        </mxCell>
        <mxCell id="UTRQuupAB5pySvWa-HIV-18" value="n协议适配层" style="rounded=1;whiteSpace=wrap;html=1;labelBackgroundColor=none;fillColor=#d5e8d4;strokeColor=#82b366;" vertex="1" parent="1">
          <mxGeometry x="560" y="550" width="150" height="60" as="geometry" />
        </mxCell>
        <mxCell id="UTRQuupAB5pySvWa-HIV-27" value="&lt;b&gt;&lt;font style=&quot;font-size: 30px;&quot;&gt;...&lt;/font&gt;&lt;/b&gt;" style="text;html=1;strokeColor=none;fillColor=none;align=center;verticalAlign=middle;whiteSpace=wrap;rounded=0;" vertex="1" parent="1">
          <mxGeometry x="480" y="510" width="60" height="30" as="geometry" />
        </mxCell>
      </root>
    </mxGraphModel>
  </diagram>
</mxfile>
